<svg width="50" height="50" viewBox="0 0 50 50" fill="none" xmlns="http://www.w3.org/2000/svg">
<path fill-rule="evenodd" clip-rule="evenodd" d="M10.4163 2.08331C8.2062 2.08331 6.08659 2.96129 4.52378 4.52409C2.96098 6.08689 2.08301 8.20651 2.08301 10.4166V39.5833C2.08301 41.7934 2.96098 43.9131 4.52378 45.4759C6.08659 47.0387 8.2062 47.9166 10.4163 47.9166H39.583C41.7931 47.9166 43.9128 47.0387 45.4756 45.4759C47.0384 43.9131 47.9163 41.7934 47.9163 39.5833V10.4166C47.9163 8.20651 47.0384 6.08689 45.4756 4.52409C43.9128 2.96129 41.7931 2.08331 39.583 2.08331H10.4163ZM23.958 14.1104C23.958 9.56456 26.2309 7.29165 30.7768 7.29165C30.7768 11.8375 28.5038 14.1104 23.958 14.1104ZM18.4059 15.625C19.8601 15.625 20.9747 16.1375 21.9476 16.5833C22.7038 16.9291 23.3726 17.2375 24.0518 17.2375C24.7309 17.2375 25.5538 16.9291 26.483 16.5833C27.6788 16.1375 29.0497 15.625 30.5038 15.625C32.3351 15.625 34.6851 16.6646 36.3747 18.7416C35.4372 19.3583 33.5622 21.2 33.5622 25.3041C33.5622 28.4812 36.2372 30.9833 37.5747 31.4687C36.1205 36.2854 33.283 40.625 30.5038 40.625C29.2955 40.625 28.2851 40.2208 27.2768 39.8187C26.2705 39.4146 25.2622 39.0125 24.0518 39.0125C22.8434 39.0125 22.0351 39.4146 21.2288 39.8187C20.4226 40.2229 19.6163 40.625 18.4059 40.625C14.4309 40.625 10.3434 31.7541 10.3434 25.3021C10.3434 18.85 15.1809 15.625 18.4059 15.625Z" fill="black"/>
</svg>
