<svg width="50" height="50" viewBox="0 0 50 50" fill="none" xmlns="http://www.w3.org/2000/svg">
<path fill-rule="evenodd" clip-rule="evenodd" d="M10.4163 2.08331C8.2062 2.08331 6.08659 2.96129 4.52378 4.52409C2.96098 6.08689 2.08301 8.20651 2.08301 10.4166V39.5833C2.08301 41.7935 2.96098 43.9131 4.52378 45.4759C6.08659 47.0387 8.2062 47.9166 10.4163 47.9166H39.583C41.7931 47.9166 43.9128 47.0387 45.4756 45.4759C47.0384 43.9131 47.9163 41.7935 47.9163 39.5833V10.4166C47.9163 8.20651 47.0384 6.08689 45.4756 4.52409C43.9128 2.96129 41.7931 2.08331 39.583 2.08331H10.4163ZM8.33301 22.7271C8.33301 15.0541 15.9518 9.09165 24.9997 9.09165C34.0476 9.09165 41.6663 15.0541 41.6663 22.7271C41.6663 30.4 34.0476 36.3625 24.9997 36.3625C24.2998 36.363 23.6003 36.3282 22.9038 36.2583L15.5497 40.7958C15.4257 40.8722 15.2823 40.9114 15.1367 40.9085C14.991 40.9056 14.8493 40.8608 14.7285 40.7795C14.6076 40.6982 14.5127 40.5838 14.4552 40.45C14.3976 40.3162 14.3798 40.1686 14.4038 40.025L15.4372 33.9C11.1893 31.4625 8.33301 27.3979 8.33301 22.7271ZM13.6351 18.6541C13.3588 18.6541 13.0939 18.7639 12.8985 18.9592C12.7032 19.1546 12.5934 19.4195 12.5934 19.6958C12.5934 19.9721 12.7032 20.237 12.8985 20.4324C13.0939 20.6277 13.3588 20.7375 13.6351 20.7375H14.8663V26.5146C14.8663 26.7908 14.9761 27.0558 15.1714 27.2511C15.3668 27.4465 15.6317 27.5562 15.908 27.5562C16.1843 27.5562 16.4492 27.4465 16.6446 27.2511C16.8399 27.0558 16.9497 26.7908 16.9497 26.5146V20.7375H18.1809C18.4572 20.7375 18.7221 20.6277 18.9175 20.4324C19.1128 20.237 19.2226 19.9721 19.2226 19.6958C19.2226 19.4195 19.1128 19.1546 18.9175 18.9592C18.7221 18.7639 18.4572 18.6541 18.1809 18.6541H13.6351ZM22.5622 19.3208C22.4861 19.1252 22.3527 18.9571 22.1795 18.8386C22.0062 18.7201 21.8012 18.6567 21.5913 18.6567C21.3815 18.6567 21.1765 18.7201 21.0032 18.8386C20.83 18.9571 20.6966 19.1252 20.6205 19.3208L17.9684 26.1375C17.8742 26.3937 17.8844 26.6767 17.9967 26.9255C18.109 27.1743 18.3145 27.369 18.569 27.4679C18.8234 27.5667 19.1065 27.5617 19.3573 27.4539C19.6082 27.3462 19.8066 27.1443 19.9101 26.8916L20.2413 26.0416H22.9413L23.2705 26.8916C23.3183 27.0215 23.3914 27.1406 23.4857 27.2419C23.58 27.3432 23.6935 27.4247 23.8196 27.4817C23.9458 27.5386 24.082 27.5698 24.2203 27.5736C24.3587 27.5773 24.4964 27.5534 24.6254 27.5033C24.7544 27.4531 24.8721 27.3778 24.9717 27.2817C25.0712 27.1856 25.1506 27.0706 25.2053 26.9435C25.2599 26.8163 25.2887 26.6796 25.2898 26.5412C25.291 26.4028 25.2646 26.2655 25.2122 26.1375L22.5622 19.3208ZM21.5913 22.5708L22.1309 23.9583H21.0518L21.5913 22.5708ZM27.5559 19.6958C27.5559 19.4195 27.4462 19.1546 27.2508 18.9592C27.0555 18.7639 26.7905 18.6541 26.5143 18.6541C26.238 18.6541 25.973 18.7639 25.7777 18.9592C25.5823 19.1546 25.4726 19.4195 25.4726 19.6958V26.5146C25.4726 26.7908 25.5823 27.0558 25.7777 27.2511C25.973 27.4465 26.238 27.5562 26.5143 27.5562H29.5455C29.8218 27.5562 30.0867 27.4465 30.2821 27.2511C30.4774 27.0558 30.5872 26.7908 30.5872 26.5146C30.5872 26.2383 30.4774 25.9733 30.2821 25.778C30.0867 25.5826 29.8218 25.4729 29.5455 25.4729H27.5559V19.6958ZM31.8184 18.6541C32.0947 18.6541 32.3596 18.7639 32.555 18.9592C32.7503 19.1546 32.8601 19.4195 32.8601 19.6958V21.7271L35.6247 18.9604C35.7208 18.8609 35.8357 18.7816 35.9628 18.727C36.0899 18.6724 36.2266 18.6436 36.3649 18.6424C36.5032 18.6412 36.6404 18.6676 36.7684 18.72C36.8964 18.7723 37.0127 18.8497 37.1105 18.9475C37.2083 19.0453 37.2857 19.1616 37.338 19.2896C37.3904 19.4176 37.4168 19.5548 37.4156 19.6931C37.4144 19.8314 37.3856 19.9681 37.331 20.0952C37.2764 20.2223 37.1971 20.3372 37.0976 20.4333L34.7268 22.8041L37.1747 25.8646C37.3372 26.0809 37.4092 26.3521 37.3753 26.6206C37.3414 26.8891 37.2044 27.1339 36.9932 27.3031C36.782 27.4724 36.5132 27.5527 36.2438 27.5273C35.9744 27.5018 35.7254 27.3725 35.5497 27.1666L33.2434 24.2875L32.858 24.6729V26.5146C32.858 26.7908 32.7483 27.0558 32.5529 27.2511C32.3576 27.4465 32.0926 27.5562 31.8163 27.5562C31.5401 27.5562 31.2751 27.4465 31.0798 27.2511C30.8844 27.0558 30.7747 26.7908 30.7747 26.5146V19.6958C30.7747 19.4195 30.8844 19.1546 31.0798 18.9592C31.2751 18.7639 31.5422 18.6541 31.8184 18.6541Z" fill="#F2E452"/>
</svg>
