<svg width="15" height="15" viewBox="0 0 15 15" fill="none" xmlns="http://www.w3.org/2000/svg">
<path d="M1.5 4C1.5 3.73478 1.60536 3.48043 1.79289 3.29289C1.98043 3.10536 2.23478 3 2.5 3H12.5C12.7652 3 13.0196 3.10536 13.2071 3.29289C13.3946 3.48043 13.5 3.73478 13.5 4C13.5 4.26522 13.3946 4.51957 13.2071 4.70711C13.0196 4.89464 12.7652 5 12.5 5H2.5C2.23478 5 1.98043 4.89464 1.79289 4.70711C1.60536 4.51957 1.5 4.26522 1.5 4ZM12.5 6.5H2.5C2.23478 6.5 1.98043 6.60536 1.79289 6.79289C1.60536 6.98043 1.5 7.23478 1.5 7.5C1.5 7.76522 1.60536 8.01957 1.79289 8.20711C1.98043 8.39464 2.23478 8.5 2.5 8.5H6.5V13C6.5 13.2652 6.60536 13.5196 6.79289 13.7071C6.98043 13.8946 7.23478 14 7.5 14C7.76522 14 8.01957 13.8946 8.20711 13.7071C8.39464 13.5196 8.5 13.2652 8.5 13V8.5H12.5C12.7652 8.5 13.0196 8.39464 13.2071 8.20711C13.3946 8.01957 13.5 7.76522 13.5 7.5C13.5 7.23478 13.3946 6.98043 13.2071 6.79289C13.0196 6.60536 12.7652 6.5 12.5 6.5Z" fill="black"/>
</svg>
