<svg width="25" height="25" viewBox="0 0 25 25" fill="none" xmlns="http://www.w3.org/2000/svg">
<path d="M12.4993 4.16669C13.6044 4.16669 14.6642 4.60567 15.4456 5.38708C16.227 6.16848 16.666 7.22829 16.666 8.33335C16.666 9.43842 16.227 10.4982 15.4456 11.2796C14.6642 12.061 13.6044 12.5 12.4993 12.5C11.3943 12.5 10.3345 12.061 9.55307 11.2796C8.77167 10.4982 8.33268 9.43842 8.33268 8.33335C8.33268 7.22829 8.77167 6.16848 9.55307 5.38708C10.3345 4.60567 11.3943 4.16669 12.4993 4.16669ZM12.4993 14.5834C17.1035 14.5834 20.8327 16.4479 20.8327 18.75V20.8334H4.16602V18.75C4.16602 16.4479 7.89518 14.5834 12.4993 14.5834Z" fill="white"/>
</svg>
