<svg width="24" height="24" viewBox="0 0 24 24" fill="none" xmlns="http://www.w3.org/2000/svg">
<path d="M7 2H18V15L11 22L9.75 20.75C9.63333 20.6333 9.53733 20.475 9.462 20.275C9.38667 20.075 9.34933 19.8833 9.35 19.7V19.35L10.45 15H4C3.46667 15 3 14.8 2.6 14.4C2.2 14 2 13.5333 2 13V11C2 10.8833 2.01667 10.7583 2.05 10.625C2.08333 10.4917 2.11667 10.3667 2.15 10.25L5.15 3.2C5.3 2.86667 5.55 2.58333 5.9 2.35C6.25 2.11667 6.61667 2 7 2ZM16 4H7L4 11V13H13L11.65 18.5L16 14.15V4ZM18 15V13H21V4H18V2H23V15H18Z" fill="#2B1D1D"/>
<path d="M7 2H18V15L11 22L9.75 20.75C9.63333 20.6333 9.53733 20.475 9.462 20.275C9.38667 20.075 9.34933 19.8833 9.35 19.7V19.35L10.45 15H4C3.46667 15 3 14.8 2.6 14.4C2.2 14 2 13.5333 2 13V11C2 10.8833 2.01667 10.7583 2.05 10.625C2.08333 10.4917 2.11667 10.3667 2.15 10.25L5.15 3.2C5.3 2.86667 5.55 2.58333 5.9 2.35C6.25 2.11667 6.61667 2 7 2ZM16 4H7L4 11V13H13L11.65 18.5L16 14.15V4ZM18 15V13H21V4H18V2H23V15H18Z" fill="black" fill-opacity="0.2"/>
<path d="M7 2H18V15L11 22L9.75 20.75C9.63333 20.6333 9.53733 20.475 9.462 20.275C9.38667 20.075 9.34933 19.8833 9.35 19.7V19.35L10.45 15H4C3.46667 15 3 14.8 2.6 14.4C2.2 14 2 13.5333 2 13V11C2 10.8833 2.01667 10.7583 2.05 10.625C2.08333 10.4917 2.11667 10.3667 2.15 10.25L5.15 3.2C5.3 2.86667 5.55 2.58333 5.9 2.35C6.25 2.11667 6.61667 2 7 2ZM16 4H7L4 11V13H13L11.65 18.5L16 14.15V4ZM18 15V13H21V4H18V2H23V15H18Z" fill="black" fill-opacity="0.2"/>
</svg>
